<mxfile host="app.diagrams.net" modified="2022-09-15T06:16:10.587Z" agent="5.0 (X11; Linux x86_64) AppleWebKit/537.36 (KHTML, like Gecko) Chrome/105.0.0.0 Safari/537.36 Edg/105.0.1343.33" etag="3QF_7DSEP67DABHiwiqm" version="20.3.0" type="github">
  <diagram id="A8GJd4T9UPs-BZy6i-0N" name="Page-1">
    <mxGraphModel dx="2793" dy="1165" grid="1" gridSize="10" guides="1" tooltips="1" connect="1" arrows="1" fold="1" page="1" pageScale="1" pageWidth="850" pageHeight="1100" math="0" shadow="0">
      <root>
        <mxCell id="0" />
        <mxCell id="1" parent="0" />
        <mxCell id="JbwRqqv8Q4kf1Fu6TmCE-29" value="" style="rounded=1;whiteSpace=wrap;html=1;align=left;verticalAlign=top;fillColor=none;" vertex="1" parent="1">
          <mxGeometry x="-350" y="120" width="310" height="360" as="geometry" />
        </mxCell>
        <mxCell id="JbwRqqv8Q4kf1Fu6TmCE-1" value="" style="rounded=1;whiteSpace=wrap;html=1;align=left;verticalAlign=top;fillColor=none;" vertex="1" parent="1">
          <mxGeometry x="40" y="120" width="310" height="400" as="geometry" />
        </mxCell>
        <mxCell id="JbwRqqv8Q4kf1Fu6TmCE-2" value="AMCL" style="text;html=1;strokeColor=none;fillColor=none;align=left;verticalAlign=middle;whiteSpace=wrap;rounded=0;fontSize=16;" vertex="1" parent="1">
          <mxGeometry x="70" y="140" width="110" height="30" as="geometry" />
        </mxCell>
        <mxCell id="JbwRqqv8Q4kf1Fu6TmCE-3" value="Init()" style="rounded=1;whiteSpace=wrap;html=1;fontSize=16;fillColor=none;" vertex="1" parent="1">
          <mxGeometry x="80" y="210" width="80" height="30" as="geometry" />
        </mxCell>
        <mxCell id="JbwRqqv8Q4kf1Fu6TmCE-4" value="ProcessCloudOnce(data)" style="rounded=1;whiteSpace=wrap;html=1;fontSize=16;fillColor=none;" vertex="1" parent="1">
          <mxGeometry x="80" y="260" width="210" height="30" as="geometry" />
        </mxCell>
        <mxCell id="JbwRqqv8Q4kf1Fu6TmCE-10" value="" style="endArrow=none;html=1;rounded=0;fontSize=16;entryX=1;entryY=0.75;entryDx=0;entryDy=0;exitX=0;exitY=0.75;exitDx=0;exitDy=0;" edge="1" parent="1">
          <mxGeometry width="50" height="50" relative="1" as="geometry">
            <mxPoint x="40" y="387" as="sourcePoint" />
            <mxPoint x="350" y="387" as="targetPoint" />
          </mxGeometry>
        </mxCell>
        <mxCell id="JbwRqqv8Q4kf1Fu6TmCE-11" value="" style="rounded=1;whiteSpace=wrap;html=1;align=left;verticalAlign=top;fillColor=none;" vertex="1" parent="1">
          <mxGeometry x="40" y="560" width="310" height="360" as="geometry" />
        </mxCell>
        <mxCell id="JbwRqqv8Q4kf1Fu6TmCE-12" value="MapManager" style="text;html=1;strokeColor=none;fillColor=none;align=left;verticalAlign=middle;whiteSpace=wrap;rounded=0;fontSize=16;" vertex="1" parent="1">
          <mxGeometry x="70" y="580" width="110" height="30" as="geometry" />
        </mxCell>
        <mxCell id="JbwRqqv8Q4kf1Fu6TmCE-13" value="CalculateWeight()" style="rounded=1;whiteSpace=wrap;html=1;fontSize=16;fillColor=none;" vertex="1" parent="1">
          <mxGeometry x="80" y="640" width="160" height="30" as="geometry" />
        </mxCell>
        <mxCell id="JbwRqqv8Q4kf1Fu6TmCE-14" value="Update()" style="rounded=1;whiteSpace=wrap;html=1;fontSize=16;fillColor=none;" vertex="1" parent="1">
          <mxGeometry x="80" y="690" width="80" height="30" as="geometry" />
        </mxCell>
        <mxCell id="JbwRqqv8Q4kf1Fu6TmCE-15" value="" style="endArrow=none;html=1;rounded=0;fontSize=16;entryX=1;entryY=0.75;entryDx=0;entryDy=0;exitX=0;exitY=0.75;exitDx=0;exitDy=0;" edge="1" source="JbwRqqv8Q4kf1Fu6TmCE-11" target="JbwRqqv8Q4kf1Fu6TmCE-11" parent="1">
          <mxGeometry width="50" height="50" relative="1" as="geometry">
            <mxPoint x="70" y="800" as="sourcePoint" />
            <mxPoint x="90" y="750" as="targetPoint" />
          </mxGeometry>
        </mxCell>
        <mxCell id="JbwRqqv8Q4kf1Fu6TmCE-17" value="dynamic_map" style="rounded=1;whiteSpace=wrap;html=1;fontSize=16;fillColor=none;" vertex="1" parent="1">
          <mxGeometry x="60" y="840" width="130" height="30" as="geometry" />
        </mxCell>
        <mxCell id="JbwRqqv8Q4kf1Fu6TmCE-18" value="static_map" style="rounded=1;whiteSpace=wrap;html=1;fontSize=16;fillColor=none;" vertex="1" parent="1">
          <mxGeometry x="60" y="880" width="130" height="30" as="geometry" />
        </mxCell>
        <mxCell id="JbwRqqv8Q4kf1Fu6TmCE-19" value="Load()" style="rounded=1;whiteSpace=wrap;html=1;fontSize=16;fillColor=none;" vertex="1" parent="1">
          <mxGeometry x="80" y="740" width="80" height="30" as="geometry" />
        </mxCell>
        <mxCell id="JbwRqqv8Q4kf1Fu6TmCE-20" value="Save()" style="rounded=1;whiteSpace=wrap;html=1;fontSize=16;fillColor=none;" vertex="1" parent="1">
          <mxGeometry x="80" y="780" width="80" height="30" as="geometry" />
        </mxCell>
        <mxCell id="JbwRqqv8Q4kf1Fu6TmCE-22" value="" style="rounded=1;whiteSpace=wrap;html=1;align=left;verticalAlign=top;fillColor=none;" vertex="1" parent="1">
          <mxGeometry x="440" y="120" width="310" height="360" as="geometry" />
        </mxCell>
        <mxCell id="JbwRqqv8Q4kf1Fu6TmCE-23" value="Preprocess" style="text;html=1;strokeColor=none;fillColor=none;align=left;verticalAlign=middle;whiteSpace=wrap;rounded=0;fontSize=16;" vertex="1" parent="1">
          <mxGeometry x="470" y="140" width="110" height="30" as="geometry" />
        </mxCell>
        <mxCell id="JbwRqqv8Q4kf1Fu6TmCE-26" value="" style="endArrow=none;html=1;rounded=0;fontSize=16;entryX=1;entryY=0.75;entryDx=0;entryDy=0;exitX=0;exitY=0.75;exitDx=0;exitDy=0;" edge="1" source="JbwRqqv8Q4kf1Fu6TmCE-22" target="JbwRqqv8Q4kf1Fu6TmCE-22" parent="1">
          <mxGeometry width="50" height="50" relative="1" as="geometry">
            <mxPoint x="470" y="360" as="sourcePoint" />
            <mxPoint x="490" y="310" as="targetPoint" />
          </mxGeometry>
        </mxCell>
        <mxCell id="JbwRqqv8Q4kf1Fu6TmCE-27" value="msg_sync_factory" style="rounded=1;whiteSpace=wrap;html=1;fontSize=16;fillColor=none;" vertex="1" parent="1">
          <mxGeometry x="-310" y="400" width="130" height="30" as="geometry" />
        </mxCell>
        <mxCell id="JbwRqqv8Q4kf1Fu6TmCE-28" value="imu_queue" style="rounded=1;whiteSpace=wrap;html=1;fontSize=16;fillColor=none;" vertex="1" parent="1">
          <mxGeometry x="480" y="400" width="130" height="30" as="geometry" />
        </mxCell>
        <mxCell id="JbwRqqv8Q4kf1Fu6TmCE-30" value="AMCL_Node" style="text;html=1;strokeColor=none;fillColor=none;align=left;verticalAlign=middle;whiteSpace=wrap;rounded=0;fontSize=16;" vertex="1" parent="1">
          <mxGeometry x="-320" y="140" width="110" height="30" as="geometry" />
        </mxCell>
        <mxCell id="JbwRqqv8Q4kf1Fu6TmCE-31" value="Init()" style="rounded=1;whiteSpace=wrap;html=1;fontSize=16;fillColor=none;" vertex="1" parent="1">
          <mxGeometry x="-310" y="210" width="80" height="30" as="geometry" />
        </mxCell>
        <mxCell id="JbwRqqv8Q4kf1Fu6TmCE-33" value="" style="endArrow=none;html=1;rounded=0;fontSize=16;entryX=1;entryY=0.75;entryDx=0;entryDy=0;exitX=0;exitY=0.75;exitDx=0;exitDy=0;" edge="1" source="JbwRqqv8Q4kf1Fu6TmCE-29" target="JbwRqqv8Q4kf1Fu6TmCE-29" parent="1">
          <mxGeometry width="50" height="50" relative="1" as="geometry">
            <mxPoint x="-320" y="360" as="sourcePoint" />
            <mxPoint x="-300" y="310" as="targetPoint" />
          </mxGeometry>
        </mxCell>
        <mxCell id="JbwRqqv8Q4kf1Fu6TmCE-35" value="amcl" style="rounded=1;whiteSpace=wrap;html=1;fontSize=16;fillColor=none;" vertex="1" parent="1">
          <mxGeometry x="-310" y="440" width="130" height="30" as="geometry" />
        </mxCell>
        <mxCell id="JbwRqqv8Q4kf1Fu6TmCE-36" value="SyncCallBack()" style="rounded=1;whiteSpace=wrap;html=1;fontSize=16;fillColor=none;" vertex="1" parent="1">
          <mxGeometry x="-310" y="260" width="160" height="30" as="geometry" />
        </mxCell>
        <mxCell id="JbwRqqv8Q4kf1Fu6TmCE-37" value="HandleIMU(data)" style="rounded=1;whiteSpace=wrap;html=1;fontSize=16;fillColor=none;" vertex="1" parent="1">
          <mxGeometry x="480" y="200" width="150" height="30" as="geometry" />
        </mxCell>
        <mxCell id="JbwRqqv8Q4kf1Fu6TmCE-38" value="HandleCloud(data)" style="rounded=1;whiteSpace=wrap;html=1;fontSize=16;fillColor=none;" vertex="1" parent="1">
          <mxGeometry x="480" y="250" width="150" height="30" as="geometry" />
        </mxCell>
        <mxCell id="JbwRqqv8Q4kf1Fu6TmCE-39" value="map_manager" style="rounded=1;whiteSpace=wrap;html=1;fontSize=16;fillColor=none;" vertex="1" parent="1">
          <mxGeometry x="60" y="400" width="130" height="30" as="geometry" />
        </mxCell>
        <mxCell id="JbwRqqv8Q4kf1Fu6TmCE-40" value="preprocess" style="rounded=1;whiteSpace=wrap;html=1;fontSize=16;fillColor=none;" vertex="1" parent="1">
          <mxGeometry x="210" y="400" width="130" height="30" as="geometry" />
        </mxCell>
        <mxCell id="JbwRqqv8Q4kf1Fu6TmCE-41" value="particle_filter" style="rounded=1;whiteSpace=wrap;html=1;fontSize=16;fillColor=none;" vertex="1" parent="1">
          <mxGeometry x="60" y="440" width="130" height="30" as="geometry" />
        </mxCell>
        <mxCell id="JbwRqqv8Q4kf1Fu6TmCE-42" value="pose_extrapolator" style="rounded=1;whiteSpace=wrap;html=1;fontSize=16;fillColor=none;" vertex="1" parent="1">
          <mxGeometry x="210" y="440" width="130" height="30" as="geometry" />
        </mxCell>
        <mxCell id="JbwRqqv8Q4kf1Fu6TmCE-43" value="INS_process" style="rounded=1;whiteSpace=wrap;html=1;fontSize=16;fillColor=none;" vertex="1" parent="1">
          <mxGeometry x="60" y="480" width="130" height="30" as="geometry" />
        </mxCell>
        <mxCell id="JbwRqqv8Q4kf1Fu6TmCE-45" value="backend_thread" style="rounded=1;whiteSpace=wrap;html=1;fontSize=16;fillColor=none;dashed=1;" vertex="1" parent="1">
          <mxGeometry x="200" y="880" width="130" height="30" as="geometry" />
        </mxCell>
        <mxCell id="JbwRqqv8Q4kf1Fu6TmCE-46" value="" style="rounded=1;whiteSpace=wrap;html=1;align=left;verticalAlign=top;fillColor=none;" vertex="1" parent="1">
          <mxGeometry x="440" y="560" width="310" height="360" as="geometry" />
        </mxCell>
        <mxCell id="JbwRqqv8Q4kf1Fu6TmCE-47" value="Particle_filter" style="text;html=1;strokeColor=none;fillColor=none;align=left;verticalAlign=middle;whiteSpace=wrap;rounded=0;fontSize=16;" vertex="1" parent="1">
          <mxGeometry x="470" y="580" width="110" height="30" as="geometry" />
        </mxCell>
        <mxCell id="JbwRqqv8Q4kf1Fu6TmCE-48" value="InitParticles()" style="rounded=1;whiteSpace=wrap;html=1;fontSize=16;fillColor=none;" vertex="1" parent="1">
          <mxGeometry x="480" y="640" width="120" height="30" as="geometry" />
        </mxCell>
        <mxCell id="JbwRqqv8Q4kf1Fu6TmCE-49" value="Resample()" style="rounded=1;whiteSpace=wrap;html=1;fontSize=16;fillColor=none;" vertex="1" parent="1">
          <mxGeometry x="480" y="690" width="100" height="30" as="geometry" />
        </mxCell>
        <mxCell id="JbwRqqv8Q4kf1Fu6TmCE-50" value="" style="endArrow=none;html=1;rounded=0;fontSize=16;entryX=1;entryY=0.75;entryDx=0;entryDy=0;exitX=0;exitY=0.75;exitDx=0;exitDy=0;" edge="1" source="JbwRqqv8Q4kf1Fu6TmCE-46" target="JbwRqqv8Q4kf1Fu6TmCE-46" parent="1">
          <mxGeometry width="50" height="50" relative="1" as="geometry">
            <mxPoint x="470" y="800" as="sourcePoint" />
            <mxPoint x="490" y="750" as="targetPoint" />
          </mxGeometry>
        </mxCell>
        <mxCell id="JbwRqqv8Q4kf1Fu6TmCE-51" value="particles" style="rounded=1;whiteSpace=wrap;html=1;fontSize=16;fillColor=none;" vertex="1" parent="1">
          <mxGeometry x="460" y="840" width="130" height="30" as="geometry" />
        </mxCell>
        <mxCell id="JbwRqqv8Q4kf1Fu6TmCE-53" value="GetParticles()" style="rounded=1;whiteSpace=wrap;html=1;fontSize=16;fillColor=none;" vertex="1" parent="1">
          <mxGeometry x="480" y="740" width="110" height="30" as="geometry" />
        </mxCell>
        <mxCell id="JbwRqqv8Q4kf1Fu6TmCE-54" value="OutputResult()" style="rounded=1;whiteSpace=wrap;html=1;fontSize=16;fillColor=none;" vertex="1" parent="1">
          <mxGeometry x="480" y="780" width="130" height="30" as="geometry" />
        </mxCell>
        <mxCell id="JbwRqqv8Q4kf1Fu6TmCE-56" value="UpdateParticles()" style="rounded=1;whiteSpace=wrap;html=1;fontSize=16;fillColor=none;" vertex="1" parent="1">
          <mxGeometry x="620" y="640" width="120" height="30" as="geometry" />
        </mxCell>
        <mxCell id="JbwRqqv8Q4kf1Fu6TmCE-57" value="motion_model" style="rounded=1;whiteSpace=wrap;html=1;fontSize=16;fillColor=none;" vertex="1" parent="1">
          <mxGeometry x="610" y="840" width="130" height="30" as="geometry" />
        </mxCell>
        <mxCell id="JbwRqqv8Q4kf1Fu6TmCE-58" value="" style="rounded=1;whiteSpace=wrap;html=1;align=left;verticalAlign=top;fillColor=none;" vertex="1" parent="1">
          <mxGeometry x="40" y="970" width="310" height="360" as="geometry" />
        </mxCell>
        <mxCell id="JbwRqqv8Q4kf1Fu6TmCE-59" value="PoseExtrapolator" style="text;html=1;strokeColor=none;fillColor=none;align=left;verticalAlign=middle;whiteSpace=wrap;rounded=0;fontSize=16;" vertex="1" parent="1">
          <mxGeometry x="70" y="990" width="110" height="30" as="geometry" />
        </mxCell>
        <mxCell id="JbwRqqv8Q4kf1Fu6TmCE-61" value="GetDeltaPose(time)" style="rounded=1;whiteSpace=wrap;html=1;fontSize=16;fillColor=none;" vertex="1" parent="1">
          <mxGeometry x="80" y="1100" width="170" height="30" as="geometry" />
        </mxCell>
        <mxCell id="JbwRqqv8Q4kf1Fu6TmCE-62" value="" style="endArrow=none;html=1;rounded=0;fontSize=16;entryX=1;entryY=0.75;entryDx=0;entryDy=0;exitX=0;exitY=0.75;exitDx=0;exitDy=0;" edge="1" source="JbwRqqv8Q4kf1Fu6TmCE-58" target="JbwRqqv8Q4kf1Fu6TmCE-58" parent="1">
          <mxGeometry width="50" height="50" relative="1" as="geometry">
            <mxPoint x="70" y="1210" as="sourcePoint" />
            <mxPoint x="90" y="1160" as="targetPoint" />
          </mxGeometry>
        </mxCell>
        <mxCell id="JbwRqqv8Q4kf1Fu6TmCE-63" value="odom_queue" style="rounded=1;whiteSpace=wrap;html=1;fontSize=16;fillColor=none;" vertex="1" parent="1">
          <mxGeometry x="60" y="1250" width="130" height="30" as="geometry" />
        </mxCell>
        <mxCell id="JbwRqqv8Q4kf1Fu6TmCE-67" value="imu_pose_queue" style="rounded=1;whiteSpace=wrap;html=1;fontSize=16;fillColor=none;dashed=1;" vertex="1" parent="1">
          <mxGeometry x="210" y="1250" width="130" height="30" as="geometry" />
        </mxCell>
        <mxCell id="JbwRqqv8Q4kf1Fu6TmCE-68" value="GetDeltaPose(time,time)" style="rounded=1;whiteSpace=wrap;html=1;fontSize=16;fillColor=none;" vertex="1" parent="1">
          <mxGeometry x="80" y="1050" width="210" height="30" as="geometry" />
        </mxCell>
        <mxCell id="JbwRqqv8Q4kf1Fu6TmCE-69" value="HandleOdom(time)" style="rounded=1;whiteSpace=wrap;html=1;fontSize=16;fillColor=none;" vertex="1" parent="1">
          <mxGeometry x="80" y="1150" width="170" height="30" as="geometry" />
        </mxCell>
        <mxCell id="JbwRqqv8Q4kf1Fu6TmCE-70" value="" style="rounded=1;whiteSpace=wrap;html=1;align=left;verticalAlign=top;fillColor=none;" vertex="1" parent="1">
          <mxGeometry x="440" y="970" width="310" height="360" as="geometry" />
        </mxCell>
        <mxCell id="JbwRqqv8Q4kf1Fu6TmCE-71" value="INS_process" style="text;html=1;strokeColor=none;fillColor=none;align=left;verticalAlign=middle;whiteSpace=wrap;rounded=0;fontSize=16;" vertex="1" parent="1">
          <mxGeometry x="470" y="990" width="110" height="30" as="geometry" />
        </mxCell>
        <mxCell id="JbwRqqv8Q4kf1Fu6TmCE-73" value="" style="endArrow=none;html=1;rounded=0;fontSize=16;entryX=1;entryY=0.75;entryDx=0;entryDy=0;exitX=0;exitY=0.75;exitDx=0;exitDy=0;" edge="1" source="JbwRqqv8Q4kf1Fu6TmCE-70" target="JbwRqqv8Q4kf1Fu6TmCE-70" parent="1">
          <mxGeometry width="50" height="50" relative="1" as="geometry">
            <mxPoint x="470" y="1210" as="sourcePoint" />
            <mxPoint x="490" y="1160" as="targetPoint" />
          </mxGeometry>
        </mxCell>
        <mxCell id="JbwRqqv8Q4kf1Fu6TmCE-76" value="ProcessOutputPose(pose,delta_pose)" style="rounded=1;whiteSpace=wrap;html=1;fontSize=16;fillColor=none;" vertex="1" parent="1">
          <mxGeometry x="455" y="1050" width="285" height="30" as="geometry" />
        </mxCell>
        <mxCell id="JbwRqqv8Q4kf1Fu6TmCE-79" value="CalculateOdometry()" style="rounded=1;whiteSpace=wrap;html=1;fontSize=16;fillColor=none;" vertex="1" parent="1">
          <mxGeometry x="455" y="1100" width="185" height="30" as="geometry" />
        </mxCell>
      </root>
    </mxGraphModel>
  </diagram>
</mxfile>
